<?xml version="1.0" standalone="no"?><!DOCTYPE svg PUBLIC "-//W3C//DTD SVG 1.1//EN" "http://www.w3.org/Graphics/SVG/1.1/DTD/svg11.dtd"><svg t="1760273541817" class="icon" viewBox="0 0 1024 1024" version="1.1" xmlns="http://www.w3.org/2000/svg" p-id="1936" xmlns:xlink="http://www.w3.org/1999/xlink" width="200" height="200"><path d="M706.021053 619.789474V377.263158h-156.294737V301.810526H474.273684V377.263158H317.978947v242.526316h75.452632v-32.336842h80.842105v134.736842h75.452632v-134.736842h80.842105v26.947368h75.452632zM474.273684 441.936842v75.452632H393.431579V441.936842h80.842105z m156.294737 0v75.452632h-80.842105V441.936842h80.842105z" fill="#5D5D5D" p-id="1937"></path><path d="M867.705263 851.536842c0 10.778947-10.778947 21.557895-21.557895 21.557895H177.852632c-10.778947 0-21.557895-10.778947-21.557895-21.557895v-377.263158L0 625.178947h80.842105v253.305264c0 43.115789 32.336842 75.452632 75.452632 75.452631h711.410526c43.115789 0 75.452632-32.336842 75.452632-75.452631v-317.978948l-75.452632 70.063158v220.968421zM156.294737 172.463158c0-10.778947 10.778947-21.557895 21.557895-21.557895h662.905263c10.778947 0 21.557895 10.778947 21.557894 21.557895v339.536842l161.684211-156.294737h-80.842105V150.905263c0-43.115789-32.336842-75.452632-75.452632-75.452631H156.294737c-37.726316 0-75.452632 32.336842-75.452632 75.452631V431.157895l75.452632-75.452632V172.463158z" fill="#5D5D5D" p-id="1938"></path></svg>