<?xml version="1.0" standalone="no"?><!DOCTYPE svg PUBLIC "-//W3C//DTD SVG 1.1//EN" "http://www.w3.org/Graphics/SVG/1.1/DTD/svg11.dtd"><svg t="1760275091112" class="icon" viewBox="0 0 1024 1024" version="1.1" xmlns="http://www.w3.org/2000/svg" p-id="10554" width="200" height="200" xmlns:xlink="http://www.w3.org/1999/xlink"><path d="M929.401905 303.299048h-69.566984a139.133968 139.133968 0 0 0-139.133969-139.133969v-69.566984a208.765968 208.765968 0 0 1 208.700953 208.700953z m-834.80381 417.401904h69.566984a139.133968 139.133968 0 0 0 139.133969 139.133969v69.566984a208.765968 208.765968 0 0 1-208.700953-208.700953z m448.609524-123.530158h168.586159v45.641143H598.276063v63.390476h96.548572v46.16127H598.276063v73.467936h117.678731v46.226286H543.142603V597.170794z m204.8 66.771301h44.470857l3.640889 27.56673h1.365333c18.074413-17.814349 39.529651-32.833016 67.616508-32.833015 45.121016 0 64.300698 31.142603 64.300699 83.740444v129.641651h-54.548318v-123.010032c0-31.98781-8.907175-43.365587-29.517206-43.365587-16.904127 0-27.826794 8.061968-43.365587 23.405714v143.034921H747.68254v-208.180826h0.260063z" p-id="10555" fill="#515151"></path><path d="M955.798349 445.228698H578.771302v38.944508h372.866031c18.399492 0 33.418159 15.018667 33.418159 33.418159v434.045968a33.483175 33.483175 0 0 1-33.418159 33.418159H517.591365a33.483175 33.483175 0 0 1-33.418159-33.418159V578.771302h-39.009523v377.092063c0 37.774222 30.687492 68.136635 68.266666 68.136635h442.69308c37.839238 0 68.136635-30.55746 68.136634-68.201651V513.365333a68.52673 68.52673 0 0 0-68.461714-68.136635z m-635.855238-225.670095h87.446349v76.783746H320.008127V219.558603z m-148.23619 76.783746h85.69092V219.558603H171.641905v76.783746z" p-id="10556" fill="#515151"></path><path d="M510.634667 0H68.201651C30.362413 0 0 30.55746 0 68.201651v442.693079c0 37.839238 30.55746 68.136635 68.201651 68.136635h442.693079c37.839238 0 68.136635-30.55746 68.136635-68.136635v-442.758095A68.52673 68.52673 0 0 0 510.634667 0z m-38.684445 370.070349h-64.560762V343.933968H320.008127V494.120635h-62.870349V343.933968H171.381841v31.467683h-59.22946V170.861714h143.034921V85.170794h59.554539c8.061968 1.10527 12.222984 2.21054 12.222984 3.315809a16.774095 16.774095 0 0 1-1.690412 5.266286 90.827175 90.827175 0 0 0-5.266286 33.158095v43.690667h151.942095v199.468698z" p-id="10557" fill="#515151"></path></svg>