<?xml version="1.0" standalone="no"?><!DOCTYPE svg PUBLIC "-//W3C//DTD SVG 1.1//EN" "http://www.w3.org/Graphics/SVG/1.1/DTD/svg11.dtd"><svg t="1760276326863" class="icon" viewBox="0 0 1024 1024" version="1.1" xmlns="http://www.w3.org/2000/svg" p-id="51472" xmlns:xlink="http://www.w3.org/1999/xlink" width="200" height="200"><path d="M469.333333 85.333333l23.722667 106.666667H853.333333a106.666667 106.666667 0 0 1 106.453334 99.669333L960 298.666667v554.666666a106.666667 106.666667 0 0 1-99.669333 106.453334L853.333333 960H354.986667L388.266667 853.333333H128a85.333333 85.333333 0 0 1-85.333333-85.333333V170.666667a85.333333 85.333333 0 0 1 85.333333-85.333334h341.333333z m384 149.333334h-350.805333L640 853.333333h-206.976l-20.010667 64H853.333333a64 64 0 0 0 63.701334-57.856L917.333333 853.333333V298.666667a64 64 0 0 0-57.856-63.701334L853.333333 234.666667z m-151.893333 176.298666l44.714667 1.706667v53.930667h109.226666V622.933333h-109.226666v95.232H701.44V622.933333h-111.616v-156.330666h111.616V410.965333z m0 98.986667h-66.218667v69.973333h66.218667v-69.973333z m108.885333 0h-64.170666v69.973333h64.170666v-69.973333zM288.298667 332.586667h-135.68V554.666667h140.16v-42.24H201.301333v-51.2h80.64v-40.661334h-80.64V374.826667h87.04v-42.24z m127.402666 46.08c-12.629333 0-23.594667 1.962667-32.981333 5.930666-7.509333 3.157333-13.525333 7.637333-18.005333 13.44l-3.114667 4.608V381.866667H315.221333V554.666667h46.378667v-114.56c2.56-8.96 6.912-15.146667 13.141333-18.56 6.186667-3.413333 14.08-5.12 23.68-5.12 5.76 0 10.453333 0.597333 14.08 1.749333a17.237333 17.237333 0 0 1 8.448 5.589333c2.048 2.56 3.498667 5.973333 4.309334 10.112 0.597333 2.773333 0.981333 5.888 1.152 9.386667l0.170666 5.504V554.666667h46.378667v-118.101334c0-9.557333-0.981333-17.92-2.901333-25.088a42.752 42.752 0 0 0-9.557334-18.090666 41.045333 41.045333 0 0 0-17.792-11.050667 86.272 86.272 0 0 0-27.008-3.669333z" p-id="51473" fill="#515151"></path></svg>