<?xml version="1.0" standalone="no"?><!DOCTYPE svg PUBLIC "-//W3C//DTD SVG 1.1//EN" "http://www.w3.org/Graphics/SVG/1.1/DTD/svg11.dtd"><svg t="1760273506716" class="icon" viewBox="0 0 1024 1024" version="1.1" xmlns="http://www.w3.org/2000/svg" p-id="2624" xmlns:xlink="http://www.w3.org/1999/xlink" width="200" height="200"><path d="M436.547368 409.6V339.536842H242.526316v344.926316h199.410526v-70.063158H323.368421v-70.063158h107.789474V474.273684H323.368421V409.6h113.178947zM700.631579 684.463158h80.842105V339.536842h-75.452631v215.578947l-5.389474-5.389473-134.736842-210.189474H485.052632v344.926316h75.452631V490.442105v-32.336842l5.389474 5.389474 134.736842 220.968421z" fill="#5D5D5D" p-id="2625"></path><path d="M867.705263 867.705263c0 10.778947-10.778947 21.557895-21.557895 21.557895H177.852632c-10.778947 0-21.557895-10.778947-21.557895-21.557895V474.273684L0 630.568421h80.842105v264.084211c0 43.115789 32.336842 75.452632 75.452632 75.452631h711.410526c43.115789 0 75.452632-32.336842 75.452632-75.452631v-334.147369l-75.452632 70.063158v237.136842zM156.294737 156.294737c0-10.778947 10.778947-21.557895 21.557895-21.557895h662.905263c10.778947 0 21.557895 10.778947 21.557894 21.557895v355.705263l156.294737-161.684211h-80.842105v-215.578947c0-43.115789-32.336842-75.452632-75.452632-75.452631H156.294737c-37.726316-5.389474-75.452632 32.336842-75.452632 75.452631V431.157895l75.452632-75.452632V156.294737z" fill="#5D5D5D" p-id="2626"></path></svg>