<?xml version="1.0" standalone="no"?><!DOCTYPE svg PUBLIC "-//W3C//DTD SVG 1.1//EN" "http://www.w3.org/Graphics/SVG/1.1/DTD/svg11.dtd"><svg t="1760274947493" class="icon" viewBox="0 0 1024 1024" version="1.1" xmlns="http://www.w3.org/2000/svg" p-id="4160" xmlns:xlink="http://www.w3.org/1999/xlink" width="200" height="200"><path d="M335.36 197.888V157.696c0-11.776 1.536-22.016 4.864-30.464 0.768-1.536 1.28-3.072 1.536-4.864 0-1.024-3.84-2.048-11.264-3.072h-54.784v78.848H144.128v188.16h54.528v-28.928h78.848v138.24H335.36v-138.24h80.384v24.064h59.392V197.888H335.36z m-57.856 115.712H198.912V242.944h78.848l-0.256 70.656z m138.24 0H335.36V242.944h80.384v70.656zM896 320h-64c0-70.656-57.344-128-128-128V128c105.984 0 192 86.016 192 192zM128 704h64c0 70.656 57.344 128 128 128v64c-105.984 0-192-86.016-192-192z" fill="#515151" p-id="4161"></path><path d="M450.304 537.6H107.52c-16.896 0-30.72-13.824-30.72-30.72V107.52c0-16.896 13.824-30.72 30.72-30.72h399.36c16.896 0 30.72 13.824 30.72 30.72v345.088h35.84V103.68c0-34.816-28.16-62.72-62.72-62.72h-407.04C68.864 40.96 40.96 69.12 40.96 103.68v407.296c0 34.816 28.16 62.72 62.72 62.72H450.56V537.6h-0.256z" fill="#515151" p-id="4162"></path><path d="M920.32 450.56h-407.04c-34.816 0-62.72 28.16-62.72 62.72v407.296c0 34.816 28.16 62.72 62.72 62.72h407.296c34.816 0 62.72-28.16 62.72-62.72V513.28C983.04 478.464 954.88 450.56 920.32 450.56z m-220.672 392.704h-158.976v-252.928h155.136V632.32H591.36v58.368h88.832v42.496H591.36v67.584h108.288v42.496z m196.352 0h-50.176v-113.152c0-29.44-8.192-39.936-27.136-39.936-15.616 0-25.6 7.424-39.936 21.504v131.584h-49.92v-191.488h41.216l3.328 25.344h1.28c16.64-16.384 36.352-30.208 62.208-30.208 41.472 0 59.136 28.672 59.136 77.056v119.296z" fill="#515151" p-id="4163"></path></svg>